#N canvas 431 22 400 639 10;
#X obj -260 -8 TuioClient;
#X obj -260 139 r add0;
#X obj -260 167 bng 32 250 50 0 empty empty empty 17 7 0 10 -262144
-260097 -1;
#X obj -210 167 bng 32 250 50 0 empty empty empty 17 7 0 10 -262144
-260097 -1;
#X obj -160 167 bng 32 250 50 0 empty empty empty 17 7 0 10 -262144
-260097 -1;
#X obj -110 167 bng 32 250 50 0 empty empty empty 17 7 0 10 -262144
-260097 -1;
#X obj -60 167 bng 32 250 50 0 empty empty empty 17 7 0 10 -262144
-260097 -1;
#X obj -10 167 bng 32 250 50 0 empty empty empty 17 7 0 10 -262144
-260097 -1;
#X obj 40 167 bng 32 250 50 0 empty empty empty 17 7 0 10 -262144 -260097
-1;
#X obj 90 167 bng 32 250 50 0 empty empty empty 17 7 0 10 -262144 -260097
-1;
#X obj -260 210 r rem0;
#X obj -260 238 bng 32 250 50 0 empty empty empty 17 7 0 10 -262144
-260097 -1;
#X obj -210 238 bng 32 250 50 0 empty empty empty 17 7 0 10 -262144
-260097 -1;
#X obj -160 238 bng 32 250 50 0 empty empty empty 17 7 0 10 -262144
-260097 -1;
#X obj -110 238 bng 32 250 50 0 empty empty empty 17 7 0 10 -262144
-260097 -1;
#X obj -60 238 bng 32 250 50 0 empty empty empty 17 7 0 10 -262144
-260097 -1;
#X obj -10 238 bng 32 250 50 0 empty empty empty 17 7 0 10 -262144
-260097 -1;
#X obj 40 238 bng 32 250 50 0 empty empty empty 17 7 0 10 -262144 -260097
-1;
#X obj 90 238 bng 32 250 50 0 empty empty empty 17 7 0 10 -262144 -260097
-1;
#X floatatom -260 308 5 0 0 0 - - -;
#X floatatom -210 308 5 0 0 0 - - -;
#X floatatom -160 308 5 0 0 0 - - -;
#X floatatom -110 308 5 0 0 0 - - -;
#X floatatom -60 308 5 0 0 0 - - -;
#X floatatom -10 308 5 0 0 0 - - -;
#X floatatom 40 308 5 0 0 0 - - -;
#X floatatom 90 308 5 0 0 0 - - -;
#X obj -210 139 r add1;
#X obj -160 139 r add2;
#X obj -110 139 r add3;
#X obj -60 139 r add4;
#X obj -10 139 r add5;
#X obj 40 139 r add6;
#X obj 90 139 r add7;
#X obj -210 210 r rem1;
#X obj -160 210 r rem2;
#X obj -110 210 r rem3;
#X obj -60 210 r rem4;
#X obj -10 210 r rem5;
#X obj 40 210 r rem6;
#X obj 90 210 r rem7;
#X floatatom -260 362 5 0 0 0 - - -;
#X floatatom -210 362 5 0 0 0 - - -;
#X floatatom -160 362 5 0 0 0 - - -;
#X floatatom -110 362 5 0 0 0 - - -;
#X floatatom -60 362 5 0 0 0 - - -;
#X floatatom -10 362 5 0 0 0 - - -;
#X floatatom 40 362 5 0 0 0 - - -;
#X floatatom 90 362 5 0 0 0 - - -;
#X obj -260 389 r angl0;
#X obj -210 389 r angl1;
#X obj -160 389 r angl2;
#X obj -110 389 r angl3;
#X obj -60 389 r angl4;
#X obj -10 389 r angl5;
#X obj 40 389 r angl6;
#X obj 90 389 r angl7;
#X obj -260 419 knob 27 27 0 360 0 0 empty empty empty 0 -8 0 8 -262144
-260097 -1 0 1;
#X obj -210 419 knob 27 27 0 360 0 0 empty empty empty 0 -8 0 8 -262144
-260097 -1 0 1;
#X obj -160 419 knob 27 27 0 360 0 0 empty empty empty 0 -8 0 8 -262144
-260097 -1 0 1;
#X obj -110 419 knob 27 27 0 360 0 0 empty empty empty 0 -8 0 8 -262144
-260097 -1 0 1;
#X obj -60 419 knob 27 27 0 360 0 0 empty empty empty 0 -8 0 8 -262144
-260097 -1 0 1;
#X obj -10 419 knob 27 27 0 360 0 0 empty empty empty 0 -8 0 8 -262144
-260097 -1 0 1;
#X obj 40 419 knob 27 27 0 360 0 0 empty empty empty 0 -8 0 8 -262144
-260097 -1 0 1;
#X obj 90 419 knob 27 27 0 360 0 0 empty empty empty 0 -8 0 8 -262144
-260097 -1 0 1;
#X floatatom -260 460 5 0 0 0 - - -;
#X floatatom -210 460 5 0 0 0 - - -;
#X floatatom -160 460 5 0 0 0 - - -;
#X floatatom -110 460 5 0 0 0 - - -;
#X floatatom -60 460 5 0 0 0 - - -;
#X floatatom -10 460 5 0 0 0 - - -;
#X floatatom 40 460 5 0 0 0 - - -;
#X floatatom 90 460 5 0 0 0 - - -;
#X obj -250 19 route addObject removeObject updateObject;
#X obj -240 46 unpack 1 2;
#X obj -126 46 unpack 1 2;
#X obj -12 46 unpack 1 2 3 4 5;
#X obj -2 73 pack 1 2 3 4;
#N canvas 7 555 487 100 addObject 0;
#X obj 11 10 inlet;
#X obj 21 37 match 0;
#X obj 31 64 s add0;
#X obj 87 64 s add1;
#X obj 143 64 s add2;
#X obj 199 64 s add3;
#X obj 255 64 s add4;
#X obj 311 64 s add5;
#X obj 367 64 s add6;
#X obj 423 64 s add7;
#X obj 77 37 match 1;
#X obj 133 37 match 2;
#X obj 189 37 match 3;
#X obj 245 37 match 4;
#X obj 301 37 match 5;
#X obj 357 37 match 6;
#X obj 413 37 match 7;
#X connect 0 0 1 0;
#X connect 0 0 10 0;
#X connect 0 0 11 0;
#X connect 0 0 12 0;
#X connect 0 0 13 0;
#X connect 0 0 14 0;
#X connect 0 0 15 0;
#X connect 0 0 16 0;
#X connect 1 0 2 0;
#X connect 10 0 3 0;
#X connect 11 0 4 0;
#X connect 12 0 5 0;
#X connect 13 0 6 0;
#X connect 14 0 7 0;
#X connect 15 0 8 0;
#X connect 16 0 9 0;
#X restore -230 101 pd addObject;
#N canvas 8 676 487 100 removeObject 0;
#X obj 12 11 inlet;
#X obj 22 38 match 0;
#X obj 78 38 match 1;
#X obj 134 38 match 2;
#X obj 190 38 match 3;
#X obj 246 38 match 4;
#X obj 302 38 match 5;
#X obj 358 38 match 6;
#X obj 414 38 match 7;
#X obj 32 65 s rem0;
#X obj 88 65 s rem1;
#X obj 144 65 s rem2;
#X obj 200 65 s rem3;
#X obj 256 65 s rem4;
#X obj 312 65 s rem5;
#X obj 368 65 s rem6;
#X obj 424 65 s rem7;
#X connect 0 0 1 0;
#X connect 0 0 2 0;
#X connect 0 0 3 0;
#X connect 0 0 4 0;
#X connect 0 0 5 0;
#X connect 0 0 6 0;
#X connect 0 0 7 0;
#X connect 0 0 8 0;
#X connect 1 0 9 0;
#X connect 2 0 10 0;
#X connect 3 0 11 0;
#X connect 4 0 12 0;
#X connect 5 0 13 0;
#X connect 6 0 14 0;
#X connect 7 0 15 0;
#X connect 8 0 16 0;
#X restore -116 101 pd removeObject;
#N canvas 19 227 1189 274 updateObject 0;
#X obj 9 -92 inlet;
#X obj 29 -38 unpack 1 2 3;
#X obj 79 16 * 480;
#X obj 119 43 / 6.28;
#X obj 129 70 * 360;
#X obj 59 141 s angl0;
#X obj 39 -11 * 640;
#X obj 173 -38 unpack 1 2 3;
#X obj 223 16 * 480;
#X obj 263 43 / 6.28;
#X obj 273 70 * 360;
#X obj 183 -11 * 640;
#X obj 318 -38 unpack 1 2 3;
#X obj 368 16 * 480;
#X obj 408 43 / 6.28;
#X obj 418 70 * 360;
#X obj 328 -11 * 640;
#X obj 462 -38 unpack 1 2 3;
#X obj 512 16 * 480;
#X obj 552 43 / 6.28;
#X obj 562 70 * 360;
#X obj 472 -11 * 640;
#X obj 607 -38 unpack 1 2 3;
#X obj 657 16 * 480;
#X obj 697 43 / 6.28;
#X obj 707 70 * 360;
#X obj 617 -11 * 640;
#X obj 751 -38 unpack 1 2 3;
#X obj 801 16 * 480;
#X obj 841 43 / 6.28;
#X obj 851 70 * 360;
#X obj 761 -11 * 640;
#X obj 896 -38 unpack 1 2 3;
#X obj 946 16 * 480;
#X obj 986 43 / 6.28;
#X obj 996 70 * 360;
#X obj 906 -11 * 640;
#X obj 1040 -38 unpack 1 2 3;
#X obj 1090 16 * 480;
#X obj 1130 43 / 6.28;
#X obj 1140 70 * 360;
#X obj 1050 -11 * 640;
#X obj 19 -65 route 0 1 2 3 4 5 6 7;
#X obj 203 141 s angl1;
#X obj 348 141 s angl2;
#X obj 492 141 s angl3;
#X obj 637 141 s angl4;
#X obj 781 141 s angl5;
#X obj 926 141 s angl6;
#X obj 1070 141 s angl7;
#X obj 49 114 s yPos0;
#X obj 39 87 s xPos0;
#X obj 183 87 s xPos1;
#X obj 193 114 s yPos1;
#X obj 328 87 s xPos2;
#X obj 338 114 s yPos2;
#X obj 472 87 s xPos3;
#X obj 482 114 s yPos3;
#X obj 617 87 s xPos4;
#X obj 627 114 s yPos4;
#X obj 761 87 s xPos5;
#X obj 771 114 s yPos5;
#X obj 906 87 s xPos6;
#X obj 916 114 s yPos6;
#X obj 1050 87 s xPos7;
#X obj 1060 114 s yPos7;
#X connect 0 0 42 0;
#X connect 1 0 6 0;
#X connect 1 1 2 0;
#X connect 1 2 3 0;
#X connect 2 0 50 0;
#X connect 3 0 4 0;
#X connect 4 0 5 0;
#X connect 6 0 51 0;
#X connect 7 0 11 0;
#X connect 7 1 8 0;
#X connect 7 2 9 0;
#X connect 8 0 53 0;
#X connect 9 0 10 0;
#X connect 10 0 43 0;
#X connect 11 0 52 0;
#X connect 12 0 16 0;
#X connect 12 1 13 0;
#X connect 12 2 14 0;
#X connect 13 0 55 0;
#X connect 14 0 15 0;
#X connect 15 0 44 0;
#X connect 16 0 54 0;
#X connect 17 0 21 0;
#X connect 17 1 18 0;
#X connect 17 2 19 0;
#X connect 18 0 57 0;
#X connect 19 0 20 0;
#X connect 20 0 45 0;
#X connect 21 0 56 0;
#X connect 22 0 26 0;
#X connect 22 1 23 0;
#X connect 22 2 24 0;
#X connect 23 0 59 0;
#X connect 24 0 25 0;
#X connect 25 0 46 0;
#X connect 26 0 58 0;
#X connect 27 0 31 0;
#X connect 27 1 28 0;
#X connect 27 2 29 0;
#X connect 28 0 61 0;
#X connect 29 0 30 0;
#X connect 30 0 47 0;
#X connect 31 0 60 0;
#X connect 32 0 36 0;
#X connect 32 1 33 0;
#X connect 32 2 34 0;
#X connect 33 0 63 0;
#X connect 34 0 35 0;
#X connect 35 0 48 0;
#X connect 36 0 62 0;
#X connect 37 0 41 0;
#X connect 37 1 38 0;
#X connect 37 2 39 0;
#X connect 38 0 65 0;
#X connect 39 0 40 0;
#X connect 40 0 49 0;
#X connect 41 0 64 0;
#X connect 42 0 1 0;
#X connect 42 1 7 0;
#X connect 42 2 12 0;
#X connect 42 3 17 0;
#X connect 42 4 22 0;
#X connect 42 5 27 0;
#X connect 42 6 32 0;
#X connect 42 7 37 0;
#X restore 8 101 pd updateObject;
#X obj -260 281 r xPos0;
#X obj -210 281 r xPos1;
#X obj -160 281 r xPos2;
#X obj -110 281 r xPos3;
#X obj -60 281 r xPos4;
#X obj -10 281 r xPos5;
#X obj 40 281 r xPos6;
#X obj 90 281 r xPos7;
#X obj -260 335 r yPos0;
#X obj -210 335 r yPos1;
#X obj -160 335 r yPos2;
#X obj -110 335 r yPos3;
#X obj -60 335 r yPos4;
#X obj -10 335 r yPos5;
#X obj 40 335 r yPos6;
#X obj 90 335 r yPos7;
#X text -239 524 This patch receives the x/y position and rotation
of 8 TUIO objects (symbolID 0-7).;
#X text -239 490 Este patch recebe a posição x/y e rotação de 8 objectos
TUIO (symbolID 0-7).;
#X text -239 569 2010 Bernardo Santos \, publicado como / released
under GPLv2;
#X text -239 599 baseado em / based on MaxMSP patch de / by Matthieu
Pernaud;
#X connect 0 0 73 0;
#X connect 1 0 2 0;
#X connect 10 0 11 0;
#X connect 27 0 3 0;
#X connect 28 0 4 0;
#X connect 29 0 5 0;
#X connect 30 0 6 0;
#X connect 31 0 7 0;
#X connect 32 0 8 0;
#X connect 33 0 9 0;
#X connect 34 0 12 0;
#X connect 35 0 13 0;
#X connect 36 0 14 0;
#X connect 37 0 15 0;
#X connect 38 0 16 0;
#X connect 39 0 17 0;
#X connect 40 0 18 0;
#X connect 49 0 57 0;
#X connect 50 0 58 0;
#X connect 51 0 59 0;
#X connect 52 0 60 0;
#X connect 53 0 61 0;
#X connect 54 0 62 0;
#X connect 55 0 63 0;
#X connect 56 0 64 0;
#X connect 57 0 65 0;
#X connect 58 0 66 0;
#X connect 59 0 67 0;
#X connect 60 0 68 0;
#X connect 61 0 69 0;
#X connect 62 0 70 0;
#X connect 63 0 71 0;
#X connect 64 0 72 0;
#X connect 73 0 74 0;
#X connect 73 1 75 0;
#X connect 73 2 76 0;
#X connect 74 1 78 0;
#X connect 75 1 79 0;
#X connect 76 1 77 0;
#X connect 76 2 77 1;
#X connect 76 3 77 2;
#X connect 76 4 77 3;
#X connect 77 0 80 0;
#X connect 81 0 19 0;
#X connect 82 0 20 0;
#X connect 83 0 21 0;
#X connect 84 0 22 0;
#X connect 85 0 23 0;
#X connect 86 0 24 0;
#X connect 87 0 25 0;
#X connect 88 0 26 0;
#X connect 89 0 41 0;
#X connect 90 0 42 0;
#X connect 91 0 43 0;
#X connect 92 0 44 0;
#X connect 93 0 45 0;
#X connect 94 0 46 0;
#X connect 95 0 47 0;
#X connect 96 0 48 0;
