#N canvas 235 87 481 419 10;
#N canvas 816 597 376 144 tuioInput 1;
#X obj -270 -18 TuioClient;
#X obj -260 9 route addObject removeObject updateObject;
#X obj -250 36 unpack 1 2;
#X obj -136 36 unpack 1 2;
#X obj -22 36 unpack 1 2 3 4 5;
#X obj -12 63 pack 1 2 3 4;
#N canvas 7 555 149 101 addObject 0;
#X obj 11 10 inlet;
#X obj 21 37 match 0;
#X obj 31 64 s add0;
#X obj 87 64 s add1;
#X obj 77 37 match 1;
#X connect 0 0 1 0;
#X connect 0 0 4 0;
#X connect 1 0 2 0;
#X connect 4 0 3 0;
#X restore -240 91 pd addObject;
#N canvas 28 647 177 109 removeObject 0;
#X obj 12 11 inlet;
#X obj 22 38 match 0;
#X obj 78 38 match 1;
#X obj 32 65 s rem0;
#X obj 88 65 s rem1;
#X connect 0 0 1 0;
#X connect 0 0 2 0;
#X connect 1 0 3 0;
#X connect 2 0 4 0;
#X restore -126 91 pd removeObject;
#N canvas 780 433 299 201 updateObject 1;
#X obj 9 -92 inlet;
#X obj 29 -38 unpack 1 2 3;
#X obj 69 70 s angl0;
#X obj 153 -38 unpack 1 2 3;
#X obj 193 70 s angl1;
#X obj 49 16 s yPos0;
#X obj 39 -11 s xPos0;
#X obj 163 -11 s xPos1;
#X obj 173 16 s yPos1;
#X obj 19 -65 route 0 1;
#N canvas 0 22 156 305 clipRotation 1;
#X obj 0 21 t f f;
#X obj 1 62 -;
#X obj 33 116 abs;
#X obj 1 89 t f f;
#X obj 1 166 spigot;
#X obj 1 193 + 0;
#X text 97 242 .mmb;
#X obj 0 -33 inlet;
#X obj 34 221 outlet;
#X obj 33 139 < 0.83;
#X obj 34 194 clip 0 6.28;
#X obj 0 -6 zexy/wrap 6.28;
#X connect 0 0 1 1;
#X connect 0 1 1 0;
#X connect 1 0 3 0;
#X connect 2 0 9 0;
#X connect 3 0 4 0;
#X connect 3 1 2 0;
#X connect 4 0 5 0;
#X connect 5 0 10 0;
#X connect 7 0 11 0;
#X connect 9 0 4 1;
#X connect 10 0 5 1;
#X connect 10 0 8 0;
#X connect 11 0 0 0;
#X restore 59 43 pd clipRotation;
#N canvas 0 22 156 305 clipRotation 1;
#X obj 0 21 t f f;
#X obj 1 62 -;
#X obj 33 116 abs;
#X obj 1 89 t f f;
#X obj 1 166 spigot;
#X obj 1 193 + 0;
#X text 97 242 .mmb;
#X obj 0 -33 inlet;
#X obj 34 221 outlet;
#X obj 33 139 < 0.83;
#X obj 34 194 clip 0 6.28;
#X obj 0 -6 zexy/wrap 6.28;
#X connect 0 0 1 1;
#X connect 0 1 1 0;
#X connect 1 0 3 0;
#X connect 2 0 9 0;
#X connect 3 0 4 0;
#X connect 3 1 2 0;
#X connect 4 0 5 0;
#X connect 5 0 10 0;
#X connect 7 0 11 0;
#X connect 9 0 4 1;
#X connect 10 0 5 1;
#X connect 10 0 8 0;
#X connect 11 0 0 0;
#X restore 183 43 pd clipRotation;
#X connect 0 0 9 0;
#X connect 1 0 6 0;
#X connect 1 1 5 0;
#X connect 1 2 10 0;
#X connect 3 0 7 0;
#X connect 3 1 8 0;
#X connect 3 2 11 0;
#X connect 9 0 1 0;
#X connect 9 1 3 0;
#X connect 10 0 2 0;
#X connect 11 0 4 0;
#X restore -2 91 pd updateObject;
#X connect 0 0 1 0;
#X connect 1 0 2 0;
#X connect 1 1 3 0;
#X connect 1 2 4 0;
#X connect 2 1 6 0;
#X connect 3 1 7 0;
#X connect 4 1 5 0;
#X connect 4 2 5 1;
#X connect 4 3 5 2;
#X connect 4 4 5 3;
#X connect 5 0 8 0;
#X restore -241 -110 pd tuioInput;
#N canvas 201 93 599 384 openGL 0;
#N canvas 261 150 381 242 gemwin 0;
#X obj -13 75 outlet;
#X obj -13 -4 inlet;
#X obj -13 27 route create;
#X msg -13 56 set destroy;
#X msg 68 56 set create;
#X msg 186 138 dimen 640 480;
#X obj 93 215 gemwin;
#X obj 131 -4 r init;
#X obj 161 100 bondo;
#X msg 283 138 title openGL;
#X msg 52 138 create \, 1;
#X msg 125 138 0 \, destroy;
#X connect 1 0 2 0;
#X connect 2 0 3 0;
#X connect 2 0 8 0;
#X connect 2 1 4 0;
#X connect 2 1 11 0;
#X connect 3 0 0 0;
#X connect 4 0 0 0;
#X connect 5 0 6 0;
#X connect 7 0 8 1;
#X connect 7 0 3 0;
#X connect 8 0 10 0;
#X connect 8 1 5 0;
#X connect 8 1 9 0;
#X connect 9 0 6 0;
#X connect 10 0 6 0;
#X connect 11 0 6 0;
#X restore -198 362 pd gemwin;
#X msg -198 343 destroy;
#X obj -108 316 circle;
#X obj -148 208 gemhead;
#X floatatom -76 28 5 0 0 0 size - -;
#X floatatom -188 28 3 -4 4 0 X - -;
#X obj -138 235 translateXYZ 1 2 0;
#X floatatom -132 28 3 -4 4 0 Y - -;
#X obj -198 1 r xPos0;
#X obj -142 1 r yPos0;
#X obj -86 1 r angl0;
#X obj -178 131 r add0;
#X obj -127 131 r rem0;
#X obj -158 183 tgl 15 0 empty empty empty 17 7 0 10 -262144 -1 -1
0 1;
#X obj -168 158 bng 15 250 50 0 empty empty empty 17 7 0 10 -262144
-1 -1;
#X obj -117 158 bng 15 250 50 0 empty empty empty 17 7 0 10 -262144
-1 -1;
#X obj 190 316 circle;
#X obj 150 208 gemhead;
#X floatatom 222 28 5 0 0 0 size - -;
#X floatatom 110 28 3 -4 4 0 X - -;
#X obj 160 235 translateXYZ 1 2 0;
#X floatatom 166 28 3 -4 4 0 Y - -;
#X obj 140 183 tgl 15 0 empty empty empty 17 7 0 10 -262144 -1 -1 0
1;
#X obj 130 158 bng 15 250 50 0 empty empty empty 17 7 0 10 -262144
-1 -1;
#X obj 181 158 bng 15 250 50 0 empty empty empty 17 7 0 10 -262144
-1 -1;
#X obj 100 1 r xPos1;
#X obj 156 1 r yPos1;
#X obj 212 1 r angl1;
#X obj 120 131 r add1;
#X obj 171 131 r rem1;
#X obj -118 289 alpha;
#X obj 180 289 alpha;
#X obj -128 262 color 0.0901961 0.305882 0.666667 0.74;
#X obj 170 262 color 0.862745 0.121569 0.172549 0.74;
#X obj -178 54 expr $f1 * 6.4 - 3.2;
#X obj -116 81 expr ($f1 * 4.8 - 2.4) * -1;
#X obj 120 54 expr $f1 * 6.4 - 3.2;
#X obj 182 81 expr ($f1 * 4.8 - 2.4) * -1;
#X obj 3 131 r init;
#X msg 3 158 0;
#X connect 0 0 1 0;
#X connect 1 0 0 0;
#X connect 3 0 6 0;
#X connect 4 0 2 1;
#X connect 5 0 34 0;
#X connect 6 0 32 0;
#X connect 7 0 35 0;
#X connect 8 0 5 0;
#X connect 9 0 7 0;
#X connect 10 0 4 0;
#X connect 11 0 14 0;
#X connect 12 0 15 0;
#X connect 13 0 3 0;
#X connect 14 0 13 0;
#X connect 15 0 13 0;
#X connect 17 0 20 0;
#X connect 18 0 16 1;
#X connect 19 0 36 0;
#X connect 20 0 33 0;
#X connect 21 0 37 0;
#X connect 22 0 17 0;
#X connect 23 0 22 0;
#X connect 24 0 22 0;
#X connect 25 0 19 0;
#X connect 26 0 21 0;
#X connect 27 0 18 0;
#X connect 28 0 23 0;
#X connect 29 0 24 0;
#X connect 30 0 2 0;
#X connect 31 0 16 0;
#X connect 32 0 30 0;
#X connect 33 0 31 0;
#X connect 34 0 6 1;
#X connect 35 0 6 2;
#X connect 36 0 20 1;
#X connect 37 0 20 2;
#X connect 38 0 39 0;
#X connect 39 0 3 0;
#X connect 39 0 17 0;
#X connect 39 0 16 1;
#X connect 39 0 2 1;
#X restore -241 113 pd openGL;
#X obj -231 -83 r add0;
#X obj -221 -55 bng 32 250 50 0 empty empty add0 36 6 0 10 -262144
-260097 -1;
#X obj -231 -12 r rem0;
#X obj -221 16 bng 32 250 50 0 empty empty remove0 36 6 0 10 -262144
-260097 -1;
#X floatatom -221 86 5 0 0 0 xPos0 - -;
#X floatatom -145 86 5 0 0 0 yPos0 - -;
#X floatatom -70 86 5 0 0 0 angl0 - -;
#X obj -261 -167 loadbang;
#X obj -251 -140 s init;
#X obj 19 -55 bng 32 250 50 0 empty empty add1 36 6 0 10 -262144 -260097
-1;
#X obj 19 16 bng 32 250 50 0 empty empty remove1 36 6 0 10 -262144
-260097 -1;
#X floatatom 19 86 5 0 0 0 xPos0 - -;
#X floatatom 95 86 5 0 0 0 yPos0 - -;
#X floatatom 170 86 5 0 0 0 angl0 - -;
#X obj 9 -83 r add1;
#X obj 9 -12 r rem1;
#X text -160 221 2010 Bernardo Santos \, publicado como / released
under GPLv2;
#X text -160 113 Este patch cria 2 circulos \, que correspondem aos
fiducial id's 0 e 1 - a dimensão dos círculos é controlada pela rotação
dos fiducials;
#X text -160 167 This patch generates 2 circles \, which match fiducial
id's 0 and 1 - the size of the circles is controled by the rotation
of the fiducials;
#N canvas 759 100 198 117 scaleToPixels 0;
#X obj 67 29 * 480;
#X obj 123 29 / 6.28;
#X obj 133 56 * 360;
#X obj 11 29 * 640;
#X obj 1 2 r xPos0;
#X obj 57 2 r yPos0;
#X obj 113 2 r angl0;
#X obj 21 83 outlet;
#X obj 77 83 outlet;
#X obj 143 83 outlet;
#X connect 0 0 8 0;
#X connect 1 0 2 0;
#X connect 2 0 9 0;
#X connect 3 0 7 0;
#X connect 4 0 3 0;
#X connect 5 0 0 0;
#X connect 6 0 1 0;
#X coords 0 0 1 1 85 60 0;
#X restore -231 59 pd scaleToPixels;
#N canvas 759 100 198 117 scaleToPixels 0;
#X obj 67 29 * 480;
#X obj 123 29 / 6.28;
#X obj 133 56 * 360;
#X obj 11 29 * 640;
#X obj 21 83 outlet;
#X obj 77 83 outlet;
#X obj 143 83 outlet;
#X obj 1 2 r xPos1;
#X obj 57 2 r yPos1;
#X obj 113 2 r angl1;
#X connect 0 0 5 0;
#X connect 1 0 2 0;
#X connect 2 0 6 0;
#X connect 3 0 4 0;
#X connect 7 0 3 0;
#X connect 8 0 0 0;
#X connect 9 0 1 0;
#X coords 0 0 1 1 85 60 0;
#X restore 9 59 pd scaleToPixels;
#X connect 2 0 3 0;
#X connect 4 0 5 0;
#X connect 9 0 10 0;
#X connect 16 0 11 0;
#X connect 17 0 12 0;
#X connect 21 0 6 0;
#X connect 21 1 7 0;
#X connect 21 2 8 0;
#X connect 22 0 13 0;
#X connect 22 1 14 0;
#X connect 22 2 15 0;
